<svg version="1.1" viewBox="0.0 0.0 340.18372703412075 537.5485564304462" fill="none" stroke="none" stroke-linecap="square" stroke-miterlimit="10" xmlns:xlink="http://www.w3.org/1999/xlink" xmlns="http://www.w3.org/2000/svg"><clipPath id="p.0"><path d="m0 0l340.18372 0l0 537.5486l-340.18372 0l0 -537.5486z" clip-rule="nonzero"/></clipPath><g clip-path="url(#p.0)"><path fill="#000000" fill-opacity="0.0" d="m0 0l340.18372 0l0 537.5486l-340.18372 0z" fill-rule="evenodd"/><path fill="#c9daf8" d="m73.46369 236.45445c-28.5 1.9090118 -31.636044 2.0446167 -38.454067 8.181107c-6.8180237 6.1364746 -11.454069 22.773834 -2.4540672 28.637787c9.0 5.8639526 20.999561 6.273407 56.454063 6.545929c35.454506 0.27252197 129.27298 2.3167114 156.27298 -4.9107666c27.0 -7.2274475 12.272522 -31.499557 5.7270355 -38.454056c-6.5455017 -6.9545135 -15.409012 -3.2729645 -45.0 -3.2729645c-29.590988 0 -104.04594 1.3639526 -132.54593 3.2729645z" fill-rule="evenodd"/><path fill="#c9daf8" d="m139.37445 218.09224c-28.5 1.9090118 -31.63604 2.044632 -38.454063 8.181107c-6.8180237 6.13649 -11.454071 22.77385 -2.454071 28.637802c9.0 5.8639374 20.999565 6.2733917 56.454063 6.5459137c35.454514 0.2725525 129.27298 2.3167114 156.27298 -4.910736c27.0 -7.227478 12.272522 -31.499573 5.7270203 -38.454086c-6.5455017 -6.9544983 -15.408997 -3.2729645 -45.0 -3.2729645c-29.590988 0 -104.04593 1.3639526 -132.54593 3.2729645z" fill-rule="evenodd"/><path fill="#c9daf8" d="m95.85003 349.0c-10.653305 1.9089966 -11.825554 2.0446167 -14.37413 8.181091c-2.548584 6.136505 -4.2815323 22.773865 -0.9173355 28.637817c3.3642044 5.8639526 7.84964 6.273407 21.102531 6.545929c13.252892 0.27252197 48.322243 2.3167114 58.414833 -4.9107666c10.092606 -7.227478 4.5874786 -31.499573 2.1407623 -38.45407c-2.446701 -6.9544983 -5.7598877 -3.2729797 -16.821 -3.2729797c-11.061111 0 -38.892365 1.3639832 -49.545662 3.2729797z" fill-rule="evenodd"/><path fill="#c9daf8" d="m125.54294 426.9895c-10.653297 1.9089966 -11.825554 2.0446167 -14.37413 8.181091c-2.5485764 6.136505 -4.2815323 22.773865 -0.9173279 28.637817c3.3641968 5.8639526 7.8496323 6.2733765 21.102524 6.545929c13.252899 0.27252197 48.322235 2.3167114 58.41484 -4.9107666c10.092606 -7.227478 4.5874634 -31.499573 2.1407623 -38.45407c-2.446701 -6.9544983 -5.7598877 -3.2729797 -16.821 -3.2729797c-11.061111 0 -38.892365 1.3639526 -49.54567 3.2729797z" fill-rule="evenodd"/><path fill="#c9daf8" d="m69.54294 453.99213c-10.653297 1.9089966 -11.825554 2.0446167 -14.37413 8.181091c-2.5485764 6.136505 -4.2815285 22.773865 -0.9173317 28.637817c3.3642006 5.8639526 7.84964 6.273407 21.102535 6.545929c13.252892 0.27252197 48.322235 2.3167114 58.414833 -4.9107666c10.092606 -7.227478 4.5874634 -31.499573 2.1407623 -38.45407c-2.446701 -6.9544983 -5.7598877 -3.2729797 -16.821 -3.2729797c-11.061111 0 -38.892372 1.3639526 -49.54567 3.2729797z" fill-rule="evenodd"/><path fill="#c9daf8" d="m186.73828 173.29659c10.653305 -1.9090118 11.825562 -2.0446167 14.37413 -8.181107c2.548584 -6.1364746 4.28154 -22.773834 0.91734314 -28.637787c-3.364212 -5.8639526 -7.84964 -6.273407 -21.10254 -6.545929c-13.252899 -0.27253723 -48.322235 -2.3167114 -58.414833 4.9107513c-10.092598 7.227478 -4.587471 31.499573 -2.1407623 38.45407c2.446701 6.9545135 5.7598877 3.2729645 16.820992 3.2729645c11.061111 0 38.89238 -1.3639526 49.54567 -3.2729645z" fill-rule="evenodd"/><path fill="#c9daf8" d="m182.75713 91.31372c16.241257 -0.4391327 18.021637 -0.4133072 22.421616 -6.1748657c4.3999634 -5.7615585 8.521103 -22.092876 3.97818 -28.39449c-4.542923 -6.301613 -11.271179 -7.324959 -31.235733 -9.415188c-19.96457 -2.0902252 -72.67421 -8.938915 -88.55162 -3.126175c-15.877411 5.8127403 -9.773109 30.740837 -6.712837 38.00261c3.0602722 7.26178 8.3910675 4.050026 25.07447 5.5680466c16.683395 1.5180206 58.784668 3.9791946 75.025925 3.540062z" fill-rule="evenodd"/></g></svg>