<svg version="1.1" viewBox="0.0 0.0 902.8267716535433 704.7139107611548" fill="none" stroke="none" stroke-linecap="square" stroke-miterlimit="10" xmlns:xlink="http://www.w3.org/1999/xlink" xmlns="http://www.w3.org/2000/svg"><clipPath id="p.0"><path d="m0 0l902.8268 0l0 704.7139l-902.8268 0l0 -704.7139z" clip-rule="nonzero"/></clipPath><g clip-path="url(#p.0)"><path fill="#000000" fill-opacity="0.0" d="m0 0l902.8268 0l0 704.7139l-902.8268 0z" fill-rule="evenodd"/><path fill="#9b5915" d="m459.48468 190.1916c-1.545929 -11.883209 4.6363525 -41.45276 -1.3253784 -58.03412c-5.961731 -16.581367 -30.0289 -31.505257 -34.44507 -41.45407c-4.416168 -9.948822 -0.44250488 -23.489502 7.948059 -18.238846c8.390533 5.250656 34.446106 31.503494 42.395233 49.742783c7.9490967 18.239273 6.4031677 46.151352 5.299408 59.692917c-1.1037903 13.54155 -8.610046 20.17453 -11.922089 21.556427c-3.3120422 1.3818817 -6.404236 -1.381897 -7.950165 -13.265091z" fill-rule="evenodd"/><path fill="#783f04" d="m512.0697 71.2961c-5.1313477 -9.867523 -18.472656 -7.93721 -19.70401 3.8606262c-1.2313232 11.797829 10.058289 46.11904 12.315979 66.92636c2.25766 20.807327 -1.4379883 47.620865 1.230011 57.917557c2.6680298 10.296707 11.904358 14.802475 14.778015 3.862671c2.8736572 -10.939804 3.9006348 -47.406937 2.4639282 -69.50148c-1.4366455 -22.094536 -5.9526367 -53.19822 -11.083923 -63.065735z" fill-rule="evenodd"/><path fill="#643b10" d="m560.395 113.04331c3.797058 14.737053 4.3027344 43.530373 4.555969 58.493874c0.25323486 14.963501 -5.568115 25.392197 -3.036499 31.28717c2.5316162 5.8949585 14.429199 16.098999 18.226257 4.0826263c3.796997 -12.016388 5.8217163 -56.002182 4.555908 -76.18092c-1.2658081 -20.178757 -5.062805 -36.956406 -12.150818 -44.8916c-7.0879517 -7.9352036 -28.351929 -7.25441 -30.377014 -2.7195969c-2.0251465 4.5348053 14.429199 15.191399 18.226196 29.928452z" fill-rule="evenodd"/><path fill="#783f04" d="m528.395 97.04331c3.797058 14.737053 4.3027344 43.530373 4.555969 58.493874c0.25323486 14.963501 -5.568115 25.392197 -3.036499 31.28717c2.5316162 5.8949585 14.429199 16.098999 18.226257 4.0826263c3.796997 -12.016388 5.8217163 -56.002182 4.555908 -76.18093c-1.2658081 -20.17875 -5.062805 -36.956398 -12.150818 -44.891594c-7.0879517 -7.9352036 -28.351929 -7.254406 -30.377045 -2.7195969c-2.0251465 4.5348053 14.42923 15.191399 18.226227 29.928452z" fill-rule="evenodd"/><path fill="#783f04" d="m482.8374 63.9562c-5.1313477 -9.867519 -18.472656 -7.9372063 -19.70398 3.8606262c-1.2313232 11.797829 10.058289 46.11905 12.3159485 66.92637c2.25766 20.807327 -1.4379578 47.62085 1.2300415 57.917557c2.6679993 10.296707 11.904327 14.802475 14.777985 3.862671c2.8736572 -10.939804 3.9006348 -47.40695 2.4639587 -69.50148c-1.436676 -22.094536 -5.9526367 -53.198227 -11.083954 -63.065742z" fill-rule="evenodd"/><path fill="#783f04" d="m574.5 125.55512c3.797058 14.737053 4.3027344 43.530373 4.555969 58.493874c0.25323486 14.963501 -5.568115 25.392212 -3.036499 31.28717c2.5316162 5.8949585 14.429199 16.098999 18.226257 4.0826263c3.796997 -12.016388 5.8217773 -56.002182 4.555969 -76.18092c-1.2658691 -20.178757 -5.062866 -36.956406 -12.150879 -44.8916c-7.0879517 -7.9352036 -28.351929 -7.25441 -30.377014 -2.7195969c-2.0251465 4.534813 14.429199 15.191399 18.226196 29.928452z" fill-rule="evenodd"/><path fill="#9b5915" d="m487.0844 190.1916c-1.545929 -11.883209 4.636383 -41.45276 -1.3253784 -58.03412c-5.961731 -16.581367 -30.0289 -31.505257 -34.44507 -41.45407c-4.416168 -9.948822 -0.44250488 -23.489502 7.948059 -18.238846c8.390533 5.250656 34.446136 31.503494 42.395233 49.742783c7.9490967 18.239273 6.4031677 46.151352 5.299408 59.692917c-1.1037903 13.54155 -8.610046 20.17453 -11.922089 21.556427c-3.3120422 1.3818817 -6.404236 -1.381897 -7.950165 -13.265091z" fill-rule="evenodd"/><path fill="#9b5915" d="m547.3495 198.8517c-1.5458984 -11.883194 4.6364136 -41.452744 -1.3253784 -58.03412c-5.961731 -16.58136 -30.02887 -31.505249 -34.44507 -41.454063c-4.416168 -9.948822 -0.44247437 -23.489502 7.948059 -18.238846c8.390564 5.250656 34.446167 31.503502 42.395264 49.742775c7.9490967 18.239288 6.403137 46.151367 5.2993774 59.692917c-1.1037598 13.541565 -8.610046 20.174545 -11.922058 21.556427c-3.3120728 1.381897 -6.404236 -1.3818817 -7.9501953 -13.265091z" fill-rule="evenodd"/><path fill="#ea9999" d="m523.9232 93.45213c1.5227051 -11.985565 8.700745 -23.5914 7.8307495 -35.38665c-0.8699341 -11.79525 -2.1757812 -27.965422 -13.050537 -35.384842c-10.874786 -7.419422 -41.540924 -11.224293 -52.19815 -9.131689c-10.657196 2.0926037 -12.179901 17.121466 -11.745087 21.68731c0.43481445 4.5658455 11.74408 1.9028893 14.353973 5.70776c2.6098938 3.8048706 -1.7395935 13.69693 1.305481 17.121464c3.045044 3.4245338 13.702606 -0.75976944 16.964905 3.4257393c3.2622986 4.185505 0.6513672 15.599514 2.6088562 21.687313c1.9575195 6.0877914 7.8311157 9.322304 9.13623 14.839447c1.3051453 5.5171356 -5.220154 12.936554 -1.3054504 18.263374c3.9146729 5.3268204 20.443756 17.50241 24.79361 13.69754c4.3497925 -3.8048782 -0.21728516 -24.541191 1.3054199 -36.526764z" fill-rule="evenodd"/><path fill="#e7c1c1" d="m377.02402 39.21585c4.409851 -4.4431763 18.25827 -4.550274 28.750061 -2.349022c10.491791 2.2012482 24.282074 5.121235 34.200714 15.556519c9.91861 10.43528 20.115112 32.66681 25.311005 47.05517c5.1958923 14.388359 8.909882 34.027756 5.8644104 39.274963c-3.0454712 5.247223 -19.945312 -3.3321686 -24.137207 -7.791687c-4.1918945 -4.459511 1.1882019 -16.290276 -1.0141602 -18.965416c-2.202362 -2.6751404 -9.485687 5.27903 -12.199982 2.914566c-2.714264 -2.3644638 -0.106536865 -13.5326 -4.0856323 -17.101357c-3.9790955 -3.5687485 -15.056885 0.7725601 -19.78888 -4.3111496c-4.731964 -5.0837173 -3.5014954 -21.195717 -8.603058 -26.191147c-5.101532 -4.995426 -17.956696 0.9004822 -22.006226 -3.7814217c-4.0495605 -4.6819077 -6.7008667 -19.866844 -2.2910461 -24.310017z" fill-rule="evenodd"/><path fill="#e7c1c1" d="m474.23358 1.4486551c5.3213806 -3.2966862 18.815155 -0.18321371 28.507935 4.395388c9.69281 4.5786023 22.426697 10.622623 29.648743 23.076221c7.222046 12.453602 11.973389 36.444443 13.683594 51.64538c1.7102051 15.200935 0.75897217 35.16455 -3.4222412 39.560234c-4.1812744 4.3956757 -18.62445 -7.875 -21.665283 -13.186165c-3.0407715 -5.311165 4.940857 -15.56736 3.4204712 -18.68084c-1.5203857 -3.113472 -10.452393 2.9302597 -12.542877 0c-2.090454 -2.930252 3.040802 -13.186165 0 -17.58155c-3.040802 -4.3953857 -14.82373 -2.7470474 -18.244781 -8.790775c-3.421051 -6.0437317 1.5194702 -21.42788 -2.2815247 -27.471611c-3.8009949 -6.0437317 -17.673828 -3.2963963 -20.524506 -8.790775c-2.8506775 -5.494381 -1.90094 -20.878819 3.4204712 -24.175507z" fill-rule="evenodd"/><path fill="#e7c1c1" d="m564.14233 30.72815c-9.70636 -1.887291 -34.227783 -2.3593006 -41.380005 0c-7.1522217 2.3592987 -4.0873413 10.695644 -1.5332031 14.1558c2.5541382 3.4601593 14.048462 3.3025742 16.858154 6.6051483c2.8096924 3.3025703 -2.043457 9.435707 0 13.210289c2.043518 3.774582 11.749878 5.81971 12.260925 9.437202c0.51104736 3.6174927 -9.705566 8.964943 -9.194458 12.267761c0.51104736 3.302826 11.49469 4.56102 12.260925 7.549164c0.7661743 2.9881516 -8.685425 7.7060013 -7.6636963 10.37973c1.0217285 2.6737213 10.728882 2.3597946 13.794128 5.6626205c3.0652466 3.3028183 -0.5114746 11.323494 4.597229 14.1543045c5.1087646 2.8308105 20.94635 11.008827 26.055115 2.8305664c5.1087036 -8.178261 6.130005 -37.745323 4.597229 -51.90013c-1.5328369 -14.154804 -8.685425 -25.636635 -13.794189 -33.02871c-5.1087036 -7.3920784 -7.1517944 -9.436455 -16.858154 -11.323746z" fill-rule="evenodd"/><path fill="#f4cccc" d="m491.1739 101.45213c1.5227051 -11.985565 8.700745 -23.5914 7.8307495 -35.38665c-0.8699646 -11.79525 -2.1757812 -27.96542 -13.050537 -35.384842c-10.874786 -7.419422 -41.540955 -11.224293 -52.19815 -9.131689c-10.657196 2.0926037 -12.179901 17.121464 -11.745087 21.68731c0.43481445 4.5658455 11.744049 1.9028893 14.353973 5.70776c2.6098938 3.8048706 -1.7395935 13.69693 1.3054504 17.121464c3.0450745 3.4245377 13.702606 -0.7597656 16.964905 3.4257355c3.2622986 4.1855087 0.6513672 15.599518 2.6088867 21.687317c1.9575195 6.0877914 7.831085 9.322304 9.13623 14.839447c1.3051147 5.5171356 -5.220154 12.936554 -1.305481 18.263374c3.9147034 5.3268127 20.443756 17.50241 24.79361 13.69754c4.349823 -3.8048706 -0.21725464 -24.541191 1.3054504 -36.526764z" fill-rule="evenodd"/><path fill="#666666" d="m321.16843 207.09496c-81.839035 -0.23577881 -98.34691 -10.614609 -120.28085 -2.832016c-21.933945 7.7825775 -17.454498 38.91426 -11.32283 49.527557c6.131668 10.613281 39.150482 1.1802216 48.112854 14.152222c8.962387 12.972015 4.482071 46.934814 5.6614227 63.67978c1.1793518 16.744995 -3.5380554 29.950592 1.4147034 36.79004c4.9527435 6.839447 -28.773407 3.3031616 28.301819 4.2467346c57.075256 0.9435425 255.42346 12.263763 314.1496 1.4146729c58.726196 -10.84906 10.377563 -53.30182 38.207397 -66.509186c27.829834 -13.207336 105.42255 -2.1216125 128.7716 -12.734894c23.349121 -10.613312 9.907715 -37.029755 11.322876 -50.944885c1.4151001 -13.915131 9.43219 -26.17804 -2.8320312 -32.54593c-12.264221 -6.3678894 2.8311157 -4.954071 -70.753296 -5.6614227c-73.58441 -0.7073517 -288.91425 1.6531067 -370.75327 1.4173279z" fill-rule="evenodd"/><path fill="#38761d" d="m547.06946 228.4463c16.888184 -0.28167725 72.27515 7.9016266 88.255615 1.6942596c15.98053 -6.207382 20.883606 -30.755203 7.6272583 -38.938522c-13.256348 -8.183304 -50.4834 -7.339676 -87.16528 -10.161331c-36.681885 -2.8216705 -108.95572 -13.258392 -132.926 -6.768631c-23.970276 6.489746 -29.418121 36.114044 -10.89566 45.707138c18.52243 9.593094 99.51297 10.440216 122.030334 11.851395c22.517334 1.4111938 -3.8145142 -3.1026306 13.07373 -3.3843079z" fill-rule="evenodd"/><path fill="#999999" d="m309.35696 284.85983c-2.1224976 17.057983 -8.254608 65.34363 0 78.72717c8.254578 13.383545 4.2445374 1.0494385 49.527557 1.5741272c45.28302 0.52471924 180.18939 11.283752 222.1706 1.5741577c41.9812 -9.709595 24.763794 -42.77423 29.716553 -59.831726c4.952759 -17.057495 -2.5940552 -34.640198 0 -42.513306c2.5940552 -7.873108 12.970215 -10.236267 15.56427 -4.725342c2.5940552 5.5109253 -3.7738037 30.967712 0 37.790924c3.7738647 6.823181 6.133423 2.8858948 22.643066 3.1482544c16.509644 0.26235962 61.792236 4.4615173 76.41467 -1.5741272c14.622498 -6.0356445 10.377075 -23.3555 11.320251 -34.63971c0.94311523 -11.284225 5.423401 -27.02948 -5.661438 -33.065598c-11.084839 -6.036133 -34.433044 -3.1511993 -60.84778 -3.1511993c-26.414673 0 -79.95184 -7.871155 -97.64038 3.1511993c-17.688538 11.022339 -7.3114624 47.237167 -8.490845 62.982895c-1.1793213 15.745728 7.782593 25.98053 1.4146729 31.491455c-6.367859 5.5109253 -27.593567 0.52471924 -39.62201 1.5741577c-12.028442 1.049408 -27.12381 14.432465 -32.548553 4.7223816c-5.424774 -9.710083 13.443115 -51.173492 0 -62.98291c-13.443146 -11.809418 -66.50787 -15.221497 -80.65881 -7.873596c-14.150909 7.347931 -0.23709106 42.513336 -4.246704 51.96106c-4.0096436 9.447723 -16.037628 12.597931 -19.811035 4.7253113c-3.773407 -7.8726196 8.255463 -42.513306 -2.8293762 -51.96103c-11.084869 -9.447723 -50.94403 -7.8745728 -63.67981 -4.725342c-12.735779 3.1492615 -10.612427 6.562805 -12.734894 23.620789z" fill-rule="evenodd"/><path fill="#3c78d8" d="m319.26117 197.52438c-22.169739 1.1416626 -24.999146 1.1395416 -31.131256 10.274963c-6.1321106 9.1354065 -5.18985 -29.405731 -5.6614075 44.537506c-0.47155762 73.94321 -11.318909 325.46405 2.8320312 399.1219c14.150909 73.657776 62.49823 36.54425 82.07349 42.825012c19.575226 6.2807007 28.538055 11.989014 35.37796 -5.140686c6.8398743 -17.1297 7.076538 -29.975464 5.6614075 -97.63745c-1.4151306 -67.66199 -13.680237 -249.237 -14.152222 -308.33438c-0.47201538 -59.097397 5.895874 -35.972397 11.32019 -46.25c5.4243164 -10.277588 18.631226 -9.420288 21.225739 -15.415604c2.5944824 -5.9953156 12.265503 -16.559387 -5.6588135 -20.55626c-17.924316 -3.996872 -79.71741 -4.5666504 -101.887115 -3.4249878z" fill-rule="evenodd"/><path fill="#a4c2f4" d="m286.52472 301.95587c-16.623169 5.8575134 -4.01239 27.661194 0 32.21707c4.01239 4.5558777 16.33609 -5.0444946 24.07434 -4.881836c7.7382507 0.16268921 14.616943 5.3695374 22.355225 5.8578186c7.7382507 0.48831177 15.476532 -3.2533264 24.07434 -2.928009c8.597839 0.3253479 22.640167 10.412201 27.512634 4.880005c4.8724976 -5.5321655 18.058441 -32.215546 1.7223511 -38.07306c-16.33609 -5.8575134 -83.11575 -2.9295044 -99.73889 2.928009z" fill-rule="evenodd"/><path fill="#a4c2f4" d="m284.65543 197.95976c-5.660553 5.424759 -12.029327 16.039795 -5.661438 19.813644c6.3678894 3.7738342 34.199036 4.9523163 43.868774 2.8293915c9.669739 -2.1229248 8.017487 -15.095367 14.149597 -15.566925c6.1321106 -0.47157288 13.916473 11.793961 22.643066 12.737534c8.726593 0.943573 19.811005 -8.019257 29.716522 -7.076126c9.905518 0.94314575 22.405518 14.621613 29.716553 12.734909c7.3110046 -1.8866882 15.564728 -17.923004 14.149597 -24.055115c-1.4151306 -6.1321106 -14.621613 -11.558182 -22.640411 -12.737534c-8.018829 -1.1793518 -17.925201 6.604553 -25.472443 5.6614227c-7.547241 -0.9431305 -12.028015 -10.848648 -19.811035 -11.320206c-7.78302 -0.47157288 -18.16098 7.7834625 -26.887146 8.490814c-8.726166 0.7073364 -16.507874 -5.6614227 -25.469818 -4.2467194c-8.961945 1.4146881 -22.641296 7.310135 -28.301819 12.734909z" fill-rule="evenodd"/><path fill="#a4c2f4" d="m286.52472 403.67725c-16.623169 5.8575134 -4.01239 27.661163 0 32.21704c4.01239 4.5558777 16.33609 -5.044464 24.07434 -4.8818054c7.7382507 0.16265869 14.616943 5.369507 22.355225 5.8578186c7.7382507 0.48831177 15.476532 -3.2533264 24.07434 -2.928009c8.597839 0.3253479 22.640167 10.41217 27.512634 4.880005c4.8724976 -5.5321655 18.058441 -32.215546 1.7223511 -38.07306c-16.33609 -5.8575134 -83.11575 -2.9295044 -99.73889 2.928009z" fill-rule="evenodd"/><path fill="#a4c2f4" d="m292.7583 505.39636c-16.623138 5.8575134 -4.01239 27.661194 0 32.21704c4.01239 4.555908 16.33609 -5.0444336 24.074371 -4.881775c7.7382507 0.16265869 14.616943 5.369507 22.355194 5.857788c7.7382812 0.48828125 15.476532 -3.253357 24.074371 -2.9279785c8.597839 0.32531738 22.640137 10.41217 27.512634 4.880005c4.8724976 -5.5321655 18.05841 -32.215576 1.7223206 -38.07309c-16.33609 -5.8575134 -83.11575 -2.9295044 -99.73889 2.928009z" fill-rule="evenodd"/></g></svg>