<svg version="1.1" viewBox="0.0 0.0 631.9002624671916 450.32020997375326" fill="none" stroke="none" stroke-linecap="square" stroke-miterlimit="10" xmlns:xlink="http://www.w3.org/1999/xlink" xmlns="http://www.w3.org/2000/svg"><clipPath id="p.0"><path d="m0 0l631.90027 0l0 450.32022l-631.90027 0l0 -450.32022z" clip-rule="nonzero"/></clipPath><g clip-path="url(#p.0)"><path fill="#000000" fill-opacity="0.0" d="m0 0l631.90027 0l0 450.32022l-631.90027 0z" fill-rule="evenodd"/><path fill="#bf9000" d="m194.05164 105.73734c-2.5727844 15.348366 -3.3860931 64.735756 0.81095886 80.207985c4.1970673 15.472229 2.978592 10.149857 24.371399 12.625397c21.392822 2.475525 84.488266 7.7978973 103.98546 2.2277985c19.497192 -5.570099 10.83139 -18.81485 12.997681 -35.648407c2.1662598 -16.833557 6.7698364 -53.47045 0 -65.35294c-6.7698364 -11.882492 -19.63269 -4.9516754 -40.61902 -5.942009c-20.986298 -0.9903412 -68.374466 -1.9803696 -85.29889 0c-16.924408 1.9803619 -13.67482 -3.466179 -16.24759 11.882179z" fill-rule="evenodd"/><path fill="#7f6000" d="m220.26382 39.844517c-13.102631 12.5609665 -46.77565 46.788982 -51.565933 58.407566c-4.7902985 11.618591 16.625015 11.461067 22.824188 11.30394c6.199188 -0.15712738 8.876312 -12.246712 14.37088 -12.246712c5.4945526 0 12.679291 12.089584 18.596481 12.246712c5.9171906 0.15712738 10.9891205 -11.147194 16.906662 -11.30394c5.9175415 -0.15673828 12.258408 9.735374 18.598587 10.3635025c6.3401794 0.62812805 11.975372 -6.9086075 19.442444 -6.594742c7.4670715 0.31386566 17.892914 8.635078 25.359985 8.477951c7.4670715 -0.15712738 12.539001 -9.263596 19.442444 -9.420723c6.9034424 -0.15712738 15.638428 7.6930847 21.978241 8.477951c6.339813 0.78486633 22.541504 8.792213 16.0607 -3.768753c-6.4808044 -12.560974 -35.78479 -57.780224 -54.945587 -71.59705c-19.160828 -13.8168335 -45.50775 -12.246325 -60.01927 -11.30394c-14.51152 0.9423828 -13.947189 4.397272 -27.04982 16.95824z" fill-rule="evenodd"/><path fill="#a38013" d="m315.9704 64.69029c7.007782 6.0043716 17.81131 18.013123 17.519104 21.191597c-0.2922058 3.1784744 -14.600342 -2.8267746 -19.272308 -2.1207352c-4.6719666 0.7060394 -5.6939697 6.180229 -8.759552 6.3569565c-3.0655823 0.1767273 -4.962372 -5.6500473 -9.633972 -5.296585c-4.671631 0.3534546 -12.556 6.710846 -18.395721 7.4173203c-5.839691 0.7064743 -14.014465 0.3534546 -16.642487 -3.178482c-2.6279907 -3.531929 -4.2351074 -11.478996 0.8744507 -18.013123c5.109558 -6.5341187 20.73114 -20.132107 29.782898 -21.191597c9.051758 -1.059494 17.519806 8.830269 24.527588 14.834648z" fill-rule="evenodd"/><path fill="#000000" d="m222.24637 145.04965c-1.059494 9.889755 -3.1780396 41.501312 1.0603638 50.860886c4.2384033 9.359589 16.599731 4.2371063 24.370071 5.2966003c7.77034 1.0594788 18.36702 3.5328064 22.251968 1.0603638c3.8849487 -2.4724426 1.0577393 -6.0056915 1.0577393 -15.89502c0 -9.889328 5.8294067 -35.140854 -1.0577393 -43.44095c-6.887146 -8.300079 -32.318024 -6.7125854 -40.26509 -6.3595734c-7.9470673 0.35301208 -6.3578186 -1.4120789 -7.4173126 8.477692z" fill-rule="evenodd"/><path fill="#666666" d="m81.587814 220.5538c-1.9422531 13.774277 -7.4168854 68.1658 0 83.706055c7.4168854 15.540222 36.02494 0.17584229 44.501312 9.535431c8.476379 9.359558 -2.8258972 38.145233 6.356964 46.62204c9.182846 8.476807 27.195099 3.5323792 48.740158 4.2388306c21.545044 0.70648193 65.342514 3.1789246 80.53018 0c15.187653 -3.178894 2.64917 -15.541534 10.595795 -19.073486c7.9466248 -3.5319214 11.300964 -1.7650757 37.083984 -2.118103c25.78302 -0.35302734 95.18637 3.8849487 117.61417 0c22.427826 -3.8849487 13.420837 -14.479889 16.952759 -23.309723c3.531952 -8.829834 -2.4715576 -24.017914 4.238861 -29.669281c6.7104187 -5.651367 19.776886 -3.8858337 36.02362 -4.238861c16.246704 -0.35299683 50.331146 6.5354614 61.456696 2.120758c11.125549 -4.4147034 4.590088 -18.719177 5.29657 -28.608917c0.70648193 -9.889786 3.5336914 -25.078323 -1.0577393 -30.729675c-4.5914307 -5.651352 47.326355 -1.7659607 -26.490784 -3.178482c-73.81717 -1.4125061 -344.71393 -4.5905457 -416.4121 -5.296585c-71.698166 -0.7060394 -9.538498 1.0603638 -13.776901 1.0603638c-4.238411 0 -9.711288 -14.8346405 -11.653549 -1.0603638z" fill-rule="evenodd"/><path fill="#999999" d="m558.58777 383.8609c3.4160767 -0.17630005 14.619507 4.9453125 17.85199 1.0603638c3.232483 -3.8849487 4.224243 -19.248474 1.5427856 -24.370087c-2.6813965 -5.1216125 -10.211548 -4.5935974 -17.631409 -6.3595886c-7.4198 -1.7659607 -22.039062 -8.297882 -26.887695 -4.236206c-4.848572 4.061676 -5.9505615 22.602356 -2.2039185 28.606293c3.746643 6.003937 20.12909 6.5341187 24.683777 7.417328c4.5546875 0.8832092 -0.77160645 -1.9418335 2.6444702 -2.118103z" fill-rule="evenodd"/><path fill="#666666" d="m78.40615 399.30093c-1.942688 4.591858 -7.0647354 28.60849 -1.0603638 34.96588c6.0043716 6.3573914 27.550308 2.82547 37.086617 3.1784668c9.536308 0.35302734 16.246277 3.7077942 20.131226 -1.0603638c3.884964 -4.768158 10.772095 -22.603668 3.178482 -27.548553c-7.5936127 -4.9448853 -38.85083 -0.53149414 -48.740158 -2.1207275c-9.889328 -1.5892334 -8.653107 -12.006561 -10.595802 -7.4147034z" fill-rule="evenodd"/><path fill="#93c47d" d="m54.39235 388.15704c-7.6424103 -0.94763184 -3.8056602 -3.2228394 -4.603649 0c-0.7979889 3.2228394 -1.9951248 14.976868 -0.18429184 19.337097c1.8108368 4.360199 3.8058853 4.1705017 11.049301 6.824188c7.243416 2.6536865 26.579613 12.510559 32.411194 9.097992c5.8315735 -3.4125671 9.023682 -23.696838 2.5782547 -29.573395c-6.4454193 -5.876526 -33.6084 -4.73822 -41.25081 -5.6858826z" fill-rule="evenodd"/><path fill="#999999" d="m104.42287 256.9492c-0.1767273 12.008728 -3.5328064 42.38275 2.1181107 51.91861c5.6509247 9.535889 25.959755 -0.0013122559 31.787407 5.2966003c5.8276367 5.2979126 2.4720001 17.66098 3.178482 26.490814c0.7064667 8.829834 -4.414261 21.543732 1.0603638 26.48819c5.4746246 4.9444275 25.606735 5.474182 31.7874 3.1784668c6.180664 -2.2957153 4.4138184 -10.772095 5.296585 -16.952759c0.8827667 -6.180664 -1.942688 -16.599274 0 -20.131226c1.9427032 -3.5319214 9.71347 -6.5350037 11.656174 -1.0603638c1.942688 5.47464 -2.6487427 27.55075 0 33.908142c2.6487274 6.3573914 5.296585 3.3534546 15.89238 4.236206c10.59581 0.882782 38.675858 6.357849 47.68242 1.0603638c9.006577 -5.297455 5.29747 -22.249329 6.356949 -32.845123c1.0595093 -10.595795 -6.8871307 -25.255035 0 -30.729675c6.887146 -5.4746094 34.082245 -7.9457397 41.322845 -2.118103c7.2406006 5.8276367 -3.1771545 30.549866 2.1207275 37.083984c5.2979126 6.5341187 8.828522 1.4142761 29.666656 2.1207275c20.838165 0.70648193 78.05557 8.8289795 95.36221 2.1181335c17.30664 -6.710846 7.0647583 -32.14087 8.477692 -42.38321c1.4129639 -10.24234 -3.8849487 -15.892395 0 -19.070862c3.8849487 -3.1784973 7.0629883 -0.35302734 23.309723 0c16.246704 0.35299683 60.92563 5.6500244 74.17062 2.118103c13.244934 -3.5319214 4.769409 -16.952332 5.2991943 -23.309723c0.5297241 -6.3573914 13.419922 -11.655716 -2.1207275 -14.8346405c-15.54071 -3.1789093 -64.63388 -3.3556366 -91.12338 -4.238846c-26.489502 -0.88319397 -55.8049 -9.71347 -67.81363 -1.0603638c-12.008759 8.653107 -0.7069397 43.26596 -4.238861 52.979004c-3.5319214 9.713043 -14.127289 13.599304 -16.952759 5.299225c-2.8254395 -8.30011 4.768158 -45.21042 0 -55.099747c-4.768158 -9.889328 -9.360016 -3.0004425 -28.608917 -4.2362213c-19.248901 -1.2357788 -70.814514 -8.8293915 -86.88452 -3.178482c-16.069992 5.6509247 -7.5927277 25.95845 -9.535431 37.084c-1.942688 11.125549 0.7047272 24.371399 -2.1207275 29.669281c-2.82547 5.2979126 -13.066055 12.360901 -14.832031 2.118103c-1.7659607 -10.242767 22.425644 -51.56604 4.2362213 -63.5748c-18.189407 -12.008743 -93.9475 -10.42038 -113.372696 -8.477676c-19.425201 1.942688 -3.0017548 8.125107 -3.178482 20.133865z" fill-rule="evenodd"/><path fill="#38761d" d="m317.84406 223.85004c16.423431 -0.17628479 70.28607 4.9453278 85.82678 1.0603638c15.54068 -3.8849487 20.308807 -19.248459 7.4172974 -24.370071c-12.89151 -5.1216125 -49.094055 -4.5936127 -84.76639 -6.3595886c-35.672363 -1.7659607 -105.95714 -8.297897 -129.26772 -4.2362213c-23.310593 4.0616913 -28.60849 22.602371 -10.59581 28.606308c18.012695 6.003937 96.77429 6.5341187 118.671906 7.417328c21.897644 0.88319397 -3.7095337 -1.9418335 12.713928 -2.1181183z" fill-rule="evenodd"/><path fill="#6aa84f" d="m295.61942 216.45522c-43.972427 -1.154129 -21.896759 -3.925064 -26.48819 0c-4.5914307 3.9250488 -11.479431 18.240112 -1.0603638 23.550354c10.419067 5.3102417 21.898071 5.079193 63.5748 8.311081c41.676727 3.231903 152.93219 15.23642 186.48557 11.080292c33.553406 -4.1560974 51.919983 -28.860016 14.834656 -36.016968c-37.085297 -7.156967 -193.37402 -5.77063 -237.34647 -6.924759z" fill-rule="evenodd"/></g></svg>