<svg version="1.1" viewBox="0.0 0.0 264.0997375328084 719.9658792650919" fill="none" stroke="none" stroke-linecap="square" stroke-miterlimit="10" xmlns:xlink="http://www.w3.org/1999/xlink" xmlns="http://www.w3.org/2000/svg"><clipPath id="p.0"><path d="m0 0l264.09973 0l0 719.9659l-264.09973 0l0 -719.9659z" clip-rule="nonzero"/></clipPath><g clip-path="url(#p.0)"><path fill="#000000" fill-opacity="0.0" d="m0 0l264.09973 0l0 719.9659l-264.09973 0z" fill-rule="evenodd"/><path fill="#783f04" d="m87.21744 136.0c1.2384796 87.24672 1.7340622 380.61157 4.4585266 469.27032c2.7244568 88.65881 9.16378 58.447083 11.888245 62.682434c2.7244644 4.2353516 3.7154388 -20.894165 4.4585266 -37.270325c0.74308777 -16.37622 0.9905853 24.848206 0 -60.986877c-0.99059296 -85.83511 0.37221527 -368.4707 -5.94355 -454.02365c-6.3157654 -85.55293 -25.263626 -52.79965 -31.951035 -59.29396c-6.687401 -6.4943123 -10.526207 16.092735 -8.173386 20.328087c2.3528214 4.235344 18.07988 -4.79834 22.290321 5.0839844c4.2104416 9.882332 1.7338715 -33.036743 2.972351 54.209976z" fill-rule="evenodd"/><path fill="#783f04" d="m176.06258 136.0c1.2384796 87.24672 1.7340698 380.61157 4.4585266 469.27032c2.7244568 88.65881 9.163788 58.447083 11.888245 62.682434c2.724472 4.2353516 3.7154388 -20.894165 4.4585266 -37.270325c0.74308777 -16.37622 0.9906006 24.848206 0 -60.986877c-0.9905853 -85.83511 0.3722229 -368.4707 -5.9435425 -454.02365c-6.3157654 -85.55293 -25.263626 -52.79965 -31.951035 -59.29396c-6.6874084 -6.4943123 -10.526215 16.092735 -8.173386 20.328087c2.352829 4.235344 18.07988 -4.79834 22.290314 5.0839844c4.210449 9.882332 1.7338715 -33.036743 2.972351 54.209976z" fill-rule="evenodd"/><path fill="#b45f06" d="m184.49081 136.0c-15.246719 -2.5411224 -73.9742 -1.6929169 -88.091866 1.6955414c-14.117676 3.388443 -11.860893 16.09404 3.385826 18.635162c15.246719 2.5411224 73.97681 0 88.09448 -3.388443c14.117676 -3.3884583 11.858276 -14.401138 -3.388443 -16.94226z" fill-rule="evenodd"/><path fill="#b45f06" d="m184.49081 228.2336c-15.246719 -2.5411224 -73.9742 -1.6929169 -88.091866 1.6955414c-14.117676 3.388443 -11.860893 16.09404 3.385826 18.635162c15.246719 2.5411224 73.97681 0 88.09448 -3.388443c14.117676 -3.3884583 11.858276 -14.401138 -3.388443 -16.94226z" fill-rule="evenodd"/><path fill="#b45f06" d="m184.49081 330.39896c-15.246719 -2.5411377 -73.9742 -1.6929321 -88.091866 1.6955261c-14.117676 3.3884583 -11.860893 16.094055 3.385826 18.635162c15.246719 2.5411377 73.97681 0 88.09448 -3.3884277c14.117676 -3.3884583 11.858276 -14.401154 -3.388443 -16.94226z" fill-rule="evenodd"/><path fill="#b45f06" d="m184.49081 432.5643c-15.246719 -2.5411072 -73.9742 -1.6929016 -88.091866 1.6955566c-14.117676 3.3884277 -11.860893 16.094025 3.385826 18.635162c15.246719 2.5411072 73.97681 0 88.09448 -3.3884583c14.117676 -3.3884583 11.858276 -14.401123 -3.388443 -16.94226z" fill-rule="evenodd"/><path fill="#b45f06" d="m184.49081 524.7979c-15.246719 -2.5411377 -73.9742 -1.6929321 -88.091866 1.6954956c-14.117676 3.3884888 -11.860893 16.094055 3.385826 18.635193c15.246719 2.5411377 73.97681 0 88.09448 -3.3884277c14.117676 -3.3884888 11.858276 -14.401123 -3.388443 -16.94226z" fill-rule="evenodd"/><path fill="#b45f06" d="m184.49081 617.0315c-15.246719 -2.5411377 -73.9742 -1.6929321 -88.091866 1.6955566c-14.117676 3.3884277 -11.860893 16.094055 3.385826 18.635132c15.246719 2.5411377 73.97681 0 88.09448 -3.3884277c14.117676 -3.3884277 11.858276 -14.401123 -3.388443 -16.94226z" fill-rule="evenodd"/></g></svg>