<svg version="1.1" viewBox="0.0 0.0 562.4645669291339 701.3648293963255" fill="none" stroke="none" stroke-linecap="square" stroke-miterlimit="10" xmlns:xlink="http://www.w3.org/1999/xlink" xmlns="http://www.w3.org/2000/svg"><clipPath id="p.0"><path d="m0 0l562.46454 0l0 701.3648l-562.46454 0l0 -701.3648z" clip-rule="nonzero"/></clipPath><g clip-path="url(#p.0)"><path fill="#000000" fill-opacity="0.0" d="m0 0l562.46454 0l0 701.3648l-562.46454 0z" fill-rule="evenodd"/><path fill="#783f04" d="m245.6483 394.257c1.9763641 48.257782 5.928253 214.8411 16.939621 263.09927c11.011383 48.25818 38.11679 26.217834 49.1286 26.449707c11.01181 0.23181152 14.683289 -4.8737793 16.94226 -25.058655c2.2589722 -20.184814 -1.1294861 -49.416626 -3.3884277 -96.050476c-2.2589722 -46.63379 2.2580872 -151.27115 -10.165375 -183.75238c-12.423431 -32.48123 -52.799194 -13.687103 -64.37532 -11.13501c-11.576111 2.5520935 -7.0577393 -21.810272 -5.08136 26.44754z" fill-rule="evenodd"/><path fill="#b45f06" d="m316.19202 388.2637c-3.6624756 -2.7751465 -17.227173 -12.209778 -20.347015 3.3301697c-3.119873 15.539917 1.6278076 50.227264 1.6278076 89.909424c0 39.68219 -4.340637 120.98889 -1.6278076 148.18353c2.712799 27.194702 14.2421875 24.696838 17.904663 14.984497c3.6624756 -9.712341 3.3917847 -33.854187 4.07016 -73.258606c0.6783447 -39.40442 0.27130127 -132.64316 0 -163.168c-0.27130127 -30.524841 2.034668 -17.205872 -1.6278076 -19.981018z" fill-rule="evenodd"/><path fill="#38761d" d="m285.70093 340.63727c0.8531189 -18.661621 -56.300568 -35.812744 -79.33226 -42.369537c-23.031693 -6.5568237 -40.944122 -6.554474 -58.857895 3.028717c-17.913757 9.583221 -38.38813 35.30484 -48.624664 54.47043c-10.2365265 19.165619 -17.059334 51.948822 -12.794502 60.523224c4.2648315 8.574402 28.146988 -12.103241 38.383514 -9.076843c10.236534 3.0263977 15.357765 27.23523 23.035652 27.23523c7.677902 0 14.07515 -23.200012 23.031693 -27.23523c8.956558 -4.035187 11.514526 14.120056 30.707611 3.0240479c19.193085 -11.095978 83.59776 -50.938446 84.45085 -69.60004z" fill-rule="evenodd"/><path fill="#38761d" d="m244.82777 373.0539c-15.424942 0.8487549 -16.561905 -65.95212 -27.762695 -79.00955c-11.200806 -13.057434 -33.647232 5.865387 -39.44211 0.664917c-5.794861 -5.2005005 13.461761 -25.79248 4.6729126 -31.867737c-8.788849 -6.075287 -48.16182 0.5169983 -57.406 -4.5839844c-9.244179 -5.1009827 11.898155 -27.91397 1.9409103 -26.021942c-9.9572525 1.8920288 -55.725708 44.653107 -61.684418 37.374115c-5.9586983 -7.2789917 10.580727 -61.530014 25.932198 -81.04808c15.351463 -19.518051 40.371513 -33.627518 66.1766 -36.060272c25.805084 -2.4327393 63.26065 -1.2779388 88.6539 21.463806c25.393265 22.74176 63.88588 81.80528 63.705673 114.98674c-0.18023682 33.181458 -49.36203 83.253265 -64.78697 84.10199z" fill-rule="evenodd"/><path fill="#38761d" d="m265.69092 351.42767c1.4060669 -17.725983 32.57126 -62.361298 55.945923 -79.5148c23.374664 -17.153519 58.490265 -27.286804 84.30203 -23.40628c25.811768 3.8805237 56.986053 30.171692 70.56857 46.689423c13.58252 16.51773 15.5208435 45.946564 10.926575 52.41693c-4.5942383 6.470398 -31.027924 -15.339081 -38.492126 -13.594666c-7.4641724 1.7443848 1.8918457 22.280518 -6.29303 24.061066c-8.184845 1.7805176 -32.780457 -16.164246 -42.816162 -13.377838c-10.035706 2.786438 -5.8994446 27.997711 -17.39804 30.096313c-11.498596 2.0986023 -40.054565 -18.083221 -51.593628 -17.50473c-11.539032 0.5784607 -6.7822876 21.953156 -17.640656 20.975616c-10.858337 -0.9775696 -48.915527 -9.115051 -47.50946 -26.841034z" fill-rule="evenodd"/><path fill="#38761d" d="m254.8797 270.17505c3.9961853 -25.95523 6.298004 -61.672928 17.26239 -82.4617c10.964386 -20.788773 24.441803 -37.20941 48.523926 -42.270935c24.082153 -5.061508 76.13928 2.333847 95.96893 11.901825c19.82965 9.567963 26.091827 36.577545 23.008911 45.505997c-3.0829163 8.928452 -35.373444 1.1611786 -41.50641 8.064743c-6.132965 6.903549 9.08316 27.984467 4.7085876 33.356583c-4.3745728 5.3721313 -24.978424 -6.331482 -30.955963 -1.1238556c-5.9775696 5.207611 4.398041 26.133942 -4.9093323 32.369537c-9.307373 6.235626 -39.83908 -3.0619812 -50.934967 5.044159c-11.095856 8.10611 -4.326721 33.11206 -15.640198 43.59262c-11.313446 10.48053 -44.652893 28.28714 -52.24054 19.29065c-7.5876465 -8.9964905 2.7184753 -47.314423 6.7146606 -73.26962z" fill-rule="evenodd"/><path fill="#274e13" d="m120.28379 355.76422c-14.682411 7.905945 -19.200783 25.978119 -16.942253 30.496063c2.2585297 4.5179443 23.716972 -5.6469727 30.493439 -3.3884583c6.7764587 2.258545 3.1062927 16.65747 10.1653595 16.939636c7.0590515 0.28216553 23.153534 -14.117249 32.188965 -15.246735c9.035431 -1.1294556 12.706039 10.1640625 22.02362 8.469818c9.317596 -1.6942139 35.011383 -9.600159 33.881897 -18.635162c-1.1294861 -9.035004 -22.02362 -32.468933 -40.6588 -35.5748c-18.635162 -3.1058655 -56.46982 9.033691 -71.15223 16.939636z" fill-rule="evenodd"/></g></svg>